<svg xmlns="http://www.w3.org/2000/svg" viewBox="-63.15 18.79 9.41 9.3" preserveAspectRatio="xMidYMid meet"><path fill="#000000" fill-rule="evenodd" d="M-62.65 22.23 L-62.28 21.07 L-62.27 20.55 L-61.94 20.1 L-61.75 19.65 L-60.01 19.3 L-59.09 19.29 L-58.16 19.83 L-58.16 20.24 L-57.99 20.43 L-57.98 20.69 L-57.86 20.74 L-57.94 20.79 L-57.86 20.83 L-57.91 20.91 L-57.82 20.95 L-57.99 22.07 L-56.86 22.29 L-56.65 22.26 L-56.41 22.08 L-56.21 22.28 L-55.86 22.29 L-55.62 22.64 L-55.64 23 L-55.42 23.95 L-55.17 24.02 L-54.64 23.8 L-54.25 24.05 L-54.33 24.15 L-54.26 24.36 L-54.43 25.15 L-54.61 25.43 L-54.7 26.43 L-54.79 26.64 L-54.92 26.67 L-55.12 26.94 L-55.4 26.97 L-55.53 27.1 L-55.61 27.35 L-55.75 27.44 L-56.12 27.3 L-56.4 27.59 L-56.55 27.46 L-57.18 27.49 L-58.02 27.26 L-58.6 27.32 L-58.65 27.16 L-58.18 26.65 L-58.15 26.18 L-57.87 26.01 L-57.77 25.7 L-57.58 25.56 L-57.56 25.44 L-57.75 25.18 L-58.81 24.78 L-60.03 24.01 L-60.34 24.02 L-61.01 23.81 L-61.11 23.61 L-61.96 23.03 L-62.29 22.48 L-62.64 22.24 L-62.65 22.23 Z"/></svg>
